<?xml version="1.0" encoding="utf-8"?>
<!-- Generator: Adobe Illustrator 28.0.0, SVG Export Plug-In . SVG Version: 6.00 Build 0)  -->
<svg version="1.1" id="Слой_1" xmlns="http://www.w3.org/2000/svg" xmlns:xlink="http://www.w3.org/1999/xlink" x="0px" y="0px"
	 viewBox="0 0 1006 969" style="enable-background:new 0 0 1006 969;" xml:space="preserve">
<style type="text/css">
	.st0{fill:#08142A;}
	.st1{fill:#1A3060;}
</style>
<g>
	<path class="st0" d="M813.2,916c-90.3,22.6-164.6,41-165,41c-0.4-0.1-68.7-13.3-151.8-29.5c-83-16.2-223-43.4-311-60.5
		s-161-31.3-162.2-31.6l-2.2-0.5V742l2.8,0.6c1.5,0.3,113,22,247.8,48.1c134.8,26.2,274.9,53.4,311.4,60.5l66.4,12.9l130.1-32.5
		c71.6-17.9,131.8-33,133.9-33.5l3.8-1l0.5-433.9l67.5,37.2v472.7l-3.8,1C979.2,874.5,903.6,893.4,813.2,916z M370.1,149.4
		c-25.9,13-47.4,23.6-47.6,23.6c-0.3,0-0.5-22.5-0.5-50s0.3-50,0.6-50c0.8,0,92.4,50.9,93.7,52.1
		C416.9,125.5,396.1,136.5,370.1,149.4z"/>
	<path class="st1" d="M666.6,768.1c-9.3,2.1-17.4,3.9-18,3.8c-0.6,0-9.4-1.6-19.6-3.5c-10.2-1.9-20-3.6-21.8-4l-3.2-0.6V451
		c0-172.1-0.2-313-0.5-313c-1,0-63.2,31.4-128,64.5c-35.8,18.3-85.1,43.5-109.8,56L321,281.2V178l32.9-16.4
		c18.1-9,68.8-34.9,112.8-57.4c43.9-22.5,103.1-52.7,131.4-67L649.6,11L711,44.9c33.8,18.6,83,45.9,109.5,60.8s74.2,41.5,106.2,59.3
		l58.2,32.3v102.9l-4.8-2.7c-24.9-14.3-282.5-156.9-285.8-158.1c-1.3-0.5-1.5,34.9-1.5,310.9v311.5L688,763
		C685.6,763.6,675.9,765.9,666.6,768.1z M370.1,149.4c25.2-12.6,45.6-23.3,46.2-24.3c0.2,0.1,0.3,0.2,0.3,0.2
		c0.3,0.3-18.7,10.2-42.3,22c-23.6,11.8-68.2,34.5-99.3,50.5c-31,16-56.9,28.8-57.4,28.4c-0.6-0.4-0.7-0.1-0.2,0.7
		c0.6,1,0.4,1.1-0.9,0.7c-0.9-0.4-1.5-0.3-1.2,0.2c0.7,1.2-4.3,3.3-5.7,2.5c-0.6-0.4-0.8-0.3-0.4,0.2c0.9,1-55.3,29.6-56.6,28.7
		c-0.5-0.3-0.7-0.1-0.4,0.4s-12,7.2-27.3,14.9l-27.9,14v188.3c0,150-0.2,188.2-1.2,188.2c-0.7-0.1-17.4-3.4-37.2-7.5
		c-19.8-4-36.3-7.4-36.8-7.4c-0.4,0-0.8-95.6-0.8-212.5V225.2l46.8-24C93.5,188,129.1,169.9,147,161s59.1-29.8,91.5-46.5
		s64.5-33,71.1-36.3l12.1-6.1L350.2,88c-15.3-8.5-27.3-15-27.6-15c-0.4,0-0.6,22.5-0.6,50s0.2,50,0.5,50S344.2,162.4,370.1,149.4z
		 M403,532.4c0,152.7-0.2,191.6-1.2,191.5c-0.7-0.1-18.8-3.6-40.2-7.9s-39.3-7.9-39.8-7.9c-0.4,0-0.8-73.4-0.8-163v-163l40.2-20.3
		c22.1-11.1,40.6-20.4,41-20.6l0,0C402.7,341.2,403,427.2,403,532.4z"/>
</g>
</svg>
